# xmcd
#
# Track frame offsets:
#	150
#	12635
#	23392
#	35514
#	48479
#	73924
#	86681
#	95925
#	114289
#	125240
#
# Disc length: 1913 seconds
#
# Revision: 0
# Processed by: cddbd v1.5.1PL2 Copyright (c) Steve Scherf et al.
# Submitted via: EasyCDDAExtractor 4.6.9.1
#
DISCID=8a07770a
DTITLE=Emmylou Harris - Gliding Bird
DYEAR=1968
DGENRE=Country
TTITLE0=I'll Be Your Baby Tonight
TTITLE1=Fugue For The Fox
TTITLE2=I Saw The Light
TTITLE3=Clocks
TTITLE4=Black Gypsy
TTITLE5=Gliding Bird
TTITLE6=Everybody's Talkin'
TTITLE7=Bobbie's Gone
TTITLE8=I'll Never Fall In Love Again
TTITLE9=Waltz Of The Magic Man
EXTD=
EXTT0=
EXTT1=
EXTT2=
EXTT3=
EXTT4=
EXTT5=
EXTT6=
EXTT7=
EXTT8=
EXTT9=
PLAYORDER=
